<svg width="144" height="58" fill="none" xmlns="http://www.w3.org/2000/svg"><path d="M21.456 19.396h-7.632V15.4H26.46V28h-3.996v-8.604h-1.008zM15.048 2.152c1.344 0 2.652.204 3.924.612 1.272.408 2.436.972 3.492 1.692a13.071 13.071 0 012.808 2.592l-2.916 2.916a8.742 8.742 0 00-3.204-2.7 8.654 8.654 0 00-4.104-1.008c-2.52 0-4.68.9-6.48 2.7-1.776 1.776-2.664 3.924-2.664 6.444s.888 4.68 2.664 6.48c1.8 1.776 3.96 2.664 6.48 2.664 1.2 0 2.352-.228 3.456-.684v4.32c-1.128.312-2.28.468-3.456.468-2.4 0-4.62-.588-6.66-1.764-2.04-1.2-3.648-2.808-4.824-4.824C2.388 20.02 1.8 17.8 1.8 15.4c0-2.4.588-4.608 1.764-6.624a12.926 12.926 0 014.824-4.824c2.04-1.2 4.26-1.8 6.66-1.8zM64.155 28H60.16V13.528h3.996V28zm2.556-25.2l6.48 14.796L79.671 2.8h6.516V28h-3.996V6.976l-9 20.592-9.036-20.664H60.16V2.8h6.552zM111.252 28l-2.592-6.048H96.744L94.188 28h-4.392l5.976-14.04h4.392l-1.656 3.888h8.424A7375.212 7375.212 0 01100.524 2.8h4.392L115.644 28h-4.392zm16.789-5.616L124.117 28h-4.86l3.924-5.616h4.86zM141.649 28h-4.86c-1.992-2.856-4.944-7.08-8.856-12.672-3.888-5.616-6.78-9.792-8.676-12.528h4.86l6.336 9.108 6.336-9.108h4.86l-8.748 12.6 8.748 12.6z" fill="#fff"/><path d="M43.314 2.152c1.8 0 3.516.348 5.148 1.044 1.632.696 3.036 1.644 4.212 2.844 1.2 1.176 2.148 2.58 2.844 4.212a12.988 12.988 0 011.044 5.148c0 2.4-.6 4.62-1.8 6.66-1.176 2.016-2.784 3.624-4.824 4.824-2.016 1.176-4.224 1.764-6.624 1.764-2.4 0-4.62-.588-6.66-1.764-2.04-1.2-3.648-2.808-4.824-4.824-1.176-2.04-1.764-4.26-1.764-6.66 0-2.4.588-4.608 1.764-6.624a12.926 12.926 0 014.824-4.824c2.04-1.2 4.26-1.8 6.66-1.8zm6.444 19.692c1.776-1.776 2.664-3.924 2.664-6.444s-.888-4.668-2.664-6.444c-1.776-1.776-3.924-2.664-6.444-2.664s-4.668.888-6.444 2.664c-1.776 1.776-2.664 3.924-2.664 6.444s.888 4.668 2.664 6.444c1.776 1.776 3.924 2.664 6.444 2.664s4.668-.888 6.444-2.664z" fill="#D00E1E"/><path d="M12.11 48.488c-.176 1.504-.733 2.666-1.67 3.487-.932.813-2.172 1.22-3.721 1.22-1.68 0-3.028-.602-4.043-1.806-1.01-1.205-1.514-2.816-1.514-4.834v-1.367c0-1.322.234-2.484.703-3.487.475-1.002 1.146-1.77 2.012-2.304.866-.54 1.868-.811 3.008-.811 1.51 0 2.721.423 3.633 1.27.911.84 1.442 2.005 1.591 3.496h-1.884c-.163-1.133-.518-1.954-1.065-2.461-.54-.508-1.299-.762-2.275-.762-1.198 0-2.139.443-2.822 1.328-.678.885-1.016 2.145-1.016 3.78v1.376c0 1.543.322 2.77.967 3.682.644.911 1.546 1.367 2.705 1.367 1.041 0 1.839-.234 2.392-.703.56-.475.931-1.299 1.114-2.47h1.884zM26.117 53c-.104-.208-.189-.58-.254-1.113-.84.872-1.842 1.308-3.008 1.308-1.041 0-1.898-.293-2.568-.879-.664-.592-.996-1.34-.996-2.246 0-1.1.416-1.953 1.25-2.558.84-.612 2.018-.918 3.535-.918h1.758v-.83c0-.632-.189-1.133-.567-1.504-.377-.378-.934-.567-1.67-.567-.644 0-1.184.163-1.62.489-.437.325-.655.719-.655 1.181h-1.816c0-.527.185-1.035.556-1.523.378-.495.886-.886 1.524-1.172a5.159 5.159 0 012.119-.43c1.217 0 2.171.306 2.861.918.69.606 1.048 1.442 1.074 2.51v4.863c0 .97.124 1.742.372 2.315V53h-1.895zm-2.998-1.377c.566 0 1.103-.146 1.611-.44.508-.292.876-.673 1.104-1.142v-2.168h-1.416c-2.214 0-3.32.648-3.32 1.943 0 .567.188 1.01.566 1.328.377.32.863.479 1.455.479zm17.66-7.568a5.412 5.412 0 00-.888-.069c-1.185 0-1.989.505-2.412 1.514V53h-1.807V42.434h1.758l.03 1.22c.592-.944 1.432-1.416 2.52-1.416.35 0 .618.046.8.137v1.68zm27.774 4.433c-.176 1.504-.733 2.666-1.67 3.487-.931.813-2.171 1.22-3.72 1.22-1.68 0-3.028-.602-4.044-1.806-1.009-1.205-1.513-2.816-1.513-4.834v-1.367c0-1.322.234-2.484.703-3.487.475-1.002 1.146-1.77 2.011-2.304.866-.54 1.869-.811 3.008-.811 1.51 0 2.722.423 3.633 1.27.912.84 1.442 2.005 1.592 3.496h-1.885c-.163-1.133-.517-1.954-1.064-2.461-.54-.508-1.3-.762-2.276-.762-1.198 0-2.138.443-2.822 1.328-.677.885-1.016 2.145-1.016 3.78v1.376c0 1.543.323 2.77.967 3.682.645.911 1.546 1.367 2.705 1.367 1.042 0 1.84-.234 2.393-.703.56-.475.93-1.299 1.113-2.47h1.885zm11.87 4.707c-1.433 0-2.598-.468-3.496-1.406-.899-.944-1.348-2.204-1.348-3.78v-.331c0-1.048.199-1.983.596-2.803.403-.827.963-1.471 1.68-1.934a4.226 4.226 0 012.343-.703c1.374 0 2.442.453 3.203 1.358.762.905 1.143 2.2 1.143 3.886v.752h-7.158c.026 1.042.329 1.885.908 2.53.586.638 1.328.957 2.227.957.637 0 1.178-.13 1.62-.39.443-.261.83-.606 1.163-1.036l1.103.86c-.885 1.36-2.213 2.04-3.984 2.04zm-.225-9.472c-.729 0-1.34.267-1.836.8-.495.528-.8 1.27-.918 2.227h5.293v-.137c-.052-.918-.3-1.627-.742-2.129-.443-.507-1.042-.761-1.797-.761zm13.355-1.29l.058 1.329c.807-1.016 1.862-1.524 3.164-1.524 2.233 0 3.36 1.26 3.379 3.78V53h-1.807v-6.992c-.006-.762-.182-1.325-.527-1.69-.338-.364-.869-.546-1.592-.546-.586 0-1.1.156-1.543.468a3.183 3.183 0 00-1.035 1.23V53h-1.806V42.434h1.709zm16.977-2.558v2.559h1.973v1.396h-1.973v6.553c0 .423.088.742.264.957.175.208.475.312.898.312.208 0 .495-.039.859-.117V53a5.24 5.24 0 01-1.386.195c-.808 0-1.416-.244-1.827-.732-.41-.488-.615-1.182-.615-2.08V43.83H106.8v-1.396h1.924v-2.559h1.807zm13.676 13.32c-1.432 0-2.597-.468-3.496-1.406-.898-.944-1.347-2.204-1.347-3.78v-.331c0-1.048.198-1.983.595-2.803.404-.827.964-1.471 1.68-1.934a4.227 4.227 0 012.344-.703c1.374 0 2.441.453 3.203 1.358s1.143 2.2 1.143 3.886v.752h-7.159c.026 1.042.329 1.885.909 2.53.585.638 1.328.957 2.226.957.638 0 1.178-.13 1.621-.39.443-.261.83-.606 1.162-1.036l1.104.86c-.886 1.36-2.214 2.04-3.985 2.04zm-.224-9.472c-.729 0-1.341.267-1.836.8-.495.528-.801 1.27-.918 2.227h5.293v-.137c-.052-.918-.3-1.627-.742-2.129-.443-.507-1.042-.761-1.797-.761zm16.753.332a5.42 5.42 0 00-.889-.069c-1.185 0-1.989.505-2.412 1.514V53h-1.807V42.434h1.758l.029 1.22c.593-.944 1.433-1.416 2.52-1.416.351 0 .618.046.801.137v1.68z" fill="#fff"/></svg>