<svg width="28" height="22" fill="none" xmlns="http://www.w3.org/2000/svg"><path fill-rule="evenodd" clip-rule="evenodd" d="M3.063.256c-.813 0-1.591.33-2.166.918A3.171 3.171 0 000 3.39v15.22c0 1.73 1.372 3.134 3.063 3.134h21.875c.812 0 1.59-.33 2.165-.918A3.17 3.17 0 0028 18.61V3.39a3.17 3.17 0 00-.897-2.216 3.028 3.028 0 00-2.165-.918H3.063zm22.312 3.707V3.39a.453.453 0 00-.128-.317.433.433 0 00-.31-.131H3.064a.433.433 0 00-.31.131.453.453 0 00-.128.317v.573L14 10.785l11.375-6.822zM2.625 7.078v11.534c0 .247.196.448.438.448h21.875a.433.433 0 00.31-.131.453.453 0 00.127-.317V7.077l-10.71 6.425a1.29 1.29 0 01-1.33 0L2.625 7.077v.001z" fill="#DA0314"/></svg>