<svg width="18" height="31" fill="none" xmlns="http://www.w3.org/2000/svg"><path d="M14.184.422H3.682a3.19 3.19 0 00-2.32 1.018A3.581 3.581 0 00.4 3.897v23.628c0 .922.346 1.806.961 2.457A3.193 3.193 0 003.682 31h10.502a3.19 3.19 0 002.321-1.018 3.581 3.581 0 00.962-2.457V3.897a3.58 3.58 0 00-.962-2.457 3.192 3.192 0 00-2.32-1.018zM8.934 29.61c-1.09 0-1.97-.931-1.97-2.085 0-1.153.88-2.085 1.97-2.085 1.089 0 1.969.932 1.969 2.085 0 1.154-.88 2.085-1.97 2.085zm5.907-5.56H3.026V4.593H14.84V24.05z" fill="#DA0314"/></svg>