<svg width="46" height="46" fill="none" xmlns="http://www.w3.org/2000/svg"><g clip-path="url(#clip0)"><path d="M44.6 12.28L34.563 2.243A4.742 4.742 0 0029.656 1.1l-6.224 2.114a5.389 5.389 0 00-3.361 3.372l-4.966 14.747c-.138.416-.034.878.277 1.19l.97.97L.416 39.406a1.132 1.132 0 00-.335.785l-.08 3.742a1.173 1.173 0 001.154 1.19l7.553.034c.565 0 1.05-.416 1.143-.982l.612-3.66 3.522-.497a1.152 1.152 0 00.993-1.166l-.057-3.188 1.42-1.42 2.044-.681a1.13 1.13 0 00.45-.278l3.673-3.672 1.409 1.409c.3.3.739.416 1.154.289l15.07-4.585a5.39 5.39 0 003.523-3.418l2.079-6.12a4.742 4.742 0 00-1.144-4.909zM17.38 31.471l-2.044.682c-.173.057-.323.15-.45.277l-1.963 1.963c-.22.22-.347.52-.335.843l.046 2.656-3.349.474c-.497.069-.89.462-.982.958l-.589 3.522-5.393-.011.047-2.102L17.98 25.121l2.875 2.875-3.476 3.476zm26.17-15.035l-2.08 6.156a3.08 3.08 0 01-2.008 1.951L25.048 28.92l-7.53-7.54 4.747-14.067a3.115 3.115 0 011.917-1.928l6.225-2.113c.889-.3 1.87-.081 2.529.589L42.97 13.896c.658.67.89 1.663.578 2.54z" fill="#fff"/><path d="M37.14 14.392l-4.69-4.688a3.562 3.562 0 00-5.046 0 3.562 3.562 0 000 5.046l4.689 4.689a3.562 3.562 0 005.046 0 3.562 3.562 0 000-5.047zM35.5 17.8a1.258 1.258 0 01-1.779 0l-4.688-4.688a1.248 1.248 0 010-1.779 1.248 1.248 0 011.778 0l4.688 4.689a1.248 1.248 0 010 1.778z" fill="#DA0314"/></g><defs><clipPath id="clip0"><path fill="#fff" d="M0 0h46v46H0z"/></clipPath></defs></svg>