<svg width="46" height="46" fill="none" xmlns="http://www.w3.org/2000/svg"><g clip-path="url(#clip0)"><path d="M.146 4.22l3.067 5.368a.766.766 0 00.48.364l2.862.715 9.816 9.817 1.085-1.085-9.97-9.97a.765.765 0 00-.356-.201l-2.75-.69-2.612-4.574 2.24-2.24L8.581 4.34l.69 2.75a.765.765 0 00.202.357l9.97 9.97 1.085-1.085-9.817-9.816-.715-2.86a.768.768 0 00-.364-.48L4.265.106a.767.767 0 00-.92.123L.276 3.298a.767.767 0 00-.131.922z" fill="#fff"/><path d="M32.03 15.115L15.159 31.987l-1.084-1.084L30.946 14.03l1.085 1.084zM12.206 32.584a.767.767 0 00-.658-.372H6.947a.766.766 0 00-.658.372l-2.3 3.835a.767.767 0 000 .79l2.3 3.834a.77.77 0 00.658.372h4.601c.27 0 .519-.141.658-.372l2.3-3.834a.767.767 0 000-.79l-2.3-3.835zm-1.092 7.297H7.381l-1.84-3.067 1.84-3.068h3.733l1.84 3.068-1.84 3.067z" fill="#DA0314"/><path d="M36.856 18.408A9.172 9.172 0 0045.777 6.98a.767.767 0 00-1.286-.358l-4.774 4.77-3.788-1.261-1.263-3.787L39.44 1.57a.767.767 0 00-.36-1.287 9.175 9.175 0 00-11.426 8.921c.001.604.064 1.206.186 1.797L11.044 27.797a9.047 9.047 0 00-1.797-.187 9.203 9.203 0 109.203 9.204 9.026 9.026 0 00-.186-1.797l4.02-4.021 1.76 1.758c.3.3.784.3 1.084 0l.383-.383a.86.86 0 111.216 1.216l-.383.383c-.3.3-.3.785 0 1.085l9.149 9.148a6.19 6.19 0 108.753-8.753l-9.148-9.15a.767.767 0 00-1.084 0l-.384.384a.859.859 0 11-1.218-1.215l.002-.001.383-.384c.3-.3.3-.785 0-1.084l-1.758-1.759 4.02-4.02a9.025 9.025 0 001.797.186zm3.014 26.075a4.66 4.66 0 01-1.631-.298l5.99-5.99a4.65 4.65 0 01-4.36 6.288zM31.18 24.55a2.394 2.394 0 003.375 3.37l8.606 8.614c.093.093.18.192.265.292l-6.557 6.557c-.1-.084-.2-.171-.293-.265l-8.613-8.614a2.394 2.394 0 00-3.374-3.37l-1.227-1.227 6.591-6.582 1.227 1.224zm3.097-7.714L16.88 34.231a.768.768 0 00-.202.73 7.72 7.72 0 11-5.577-5.577.774.774 0 00.729-.203l17.393-17.395a.767.767 0 00.202-.728 7.633 7.633 0 017.867-9.51l-4.046 4.047a.766.766 0 00-.185.784l1.534 4.602a.768.768 0 00.485.485L39.682 13c.275.091.579.02.784-.185l4.046-4.046a7.63 7.63 0 01-9.509 7.866.767.767 0 00-.729.202h.004z" fill="#fff"/><path d="M39.7 38.572l-1.085 1.085-7.668-7.67 1.084-1.084 7.67 7.669z" fill="#DA0314"/></g><defs><clipPath id="clip0"><path fill="#fff" d="M0 0h46v46H0z"/></clipPath></defs></svg>