<svg width="85" height="34" fill="none" xmlns="http://www.w3.org/2000/svg"><path d="M34.759 12.845h8.312v3.022h-8.312v-3.023z" fill="#DA0314"/><path d="M74.043 7.466l-.06-.037a48.219 48.219 0 00-5.415-2.87h0A47.37 47.37 0 0048.972.34h0H47.3a47.818 47.818 0 00-22.831 5.822l49.574 1.304zm0 0l.07.01 9.623 1.374c.53.076.924.53.924 1.066V21.39h0a5.017 5.017 0 01-3.17 4.683h-.001l-4.588 1.84v.001c-.128.05-.264.077-.401.077h-.749l-.08.227a8.129 8.129 0 01-15.343 0l-.08-.227H21.917l-.08.227a8.127 8.127 0 01-4.982 4.982h0a8.129 8.129 0 01-10.36-4.982l-.08-.227H1.417A1.076 1.076 0 01.34 26.914v-8.411a6.127 6.127 0 013.079-5.305 33.136 33.136 0 0116.034-4.346h.085l.074-.041 4.856-2.65 49.575 1.305zM20.051 26.699h0a6.006 6.006 0 01-11.77-2.405h0a6.007 6.007 0 017.088-4.682s0 0 0 0l-.068.333 4.75 6.754zm0 0a6.01 6.01 0 00.122-1.201l-.121 1.2zm62.456-13.61h-4.25v2.153h4.25v6.147h-.34l.34-8.3zm0 0v-.34m0 .34v-.34m0 0v-1.901l-.292-.041-8.701-1.242s0 0 0 0a1.08 1.08 0 01-.418-.153h0a45.764 45.764 0 00-4.525-2.476l-.217-.103-.17.17-3.673 3.673h0a1.074 1.074 0 01-.761.316H47.827v14.844h12.017v-.34a8.168 8.168 0 018.161-8.16l14.502-4.587zm-7.55 8.494l-.001-.002a4.046 4.046 0 00-.204-.33l.205.332zm0 0c.037.065.077.127.11.18m-.11-.18l.11.18m-3.185-3.105l-.002-.001c-.073-.04-.156-.078-.248-.121a18.46 18.46 0 01-.268-.13c-.07-.034-.126-.062-.196-.091l-.002-.001c-.076-.033-.169-.065-.272-.101l-.134-.047h0a9.017 9.017 0 01-.16-.06 2.554 2.554 0 00-.18-.065 5.38 5.38 0 00-.33-.086 25.439 25.439 0 01-.29-.073l-.02-.006a2.296 2.296 0 00-.14-.035l.069-.333m2.173 1.15l-2.703-1.231m2.703 1.23c.1.053.189.109.309.187.069.045.138.085.198.12.062.037.114.068.162.1.072.047.137.097.211.154l.102.076.13.096c.063.045.116.082.177.134.062.054.113.1.166.151.042.04.085.08.138.127l.1.089a2.71 2.71 0 01.31.307l.005.006c.045.05.096.108.145.158l.242-.24-.242.24.005.004c.087.089.16.163.239.258.065.079.129.165.194.253l.05.07.096.124m-2.737-2.414l2.737 2.414m-4.91-3.563l-.069.333a5.066 5.066 0 00-.346-.055 17.02 17.02 0 01-.162-.022h-.002l.049-.337m.53.081a5.699 5.699 0 00-.38-.06l-.15-.021m.53.081c.062.013.122.03.182.046a4.011 4.011 0 00.268.068l-.98-.195m5.889 4.336c.035.055.065.103.092.153l-.092-.153zm-.45-.692c.045.058.086.11.134.18l-.133-.18zm-29.285 5.107h.34V10.992h-25.84 0a30.971 30.971 0 00-15.345 4.075h0a3.963 3.963 0 00-1.995 3.435v7.336h3.513v-.34a8.16 8.16 0 0116.32 0v.34h23.007zm0-16.999h.34V2.54l-.355.016A45.641 45.641 0 0025.5 8.05h0l-.274.15.163.638h19.944zm2.833-6.346h-.34v6.346h15.478l.1-.1 2.474-2.472.365-.365-.48-.192a45.181 45.181 0 00-16.795-3.217s0 0 0 0h-.802zm25.719 24.206h0a6.006 6.006 0 00-4.682-7.087 6.007 6.007 0 104.682 7.087zm6.803-2.626s0 0 0 0l-4.325-.06.02.136-.335.053v.001l.023.139c.017.094.03.177.04.265.008.083.011.159.015.24a7.67 7.67 0 00.021.327c.007.077.013.14.013.214v.503l.466-.187 4.062-1.631zm-4.852-.828l.045.175-.72-1.843c.04.073.072.142.108.219a10.405 10.405 0 00.135.273c.038.074.07.133.097.205.023.059.045.12.068.185l.072.2.047.123c.033.087.063.165.09.25h0c.024.075.04.139.058.213z" fill="#fff" stroke="#000" stroke-width=".68"/></svg>